# xmcd
#
# Track frame offsets: 
#        150
#        7019
#        32635
#        54117
#        78277
#        93075
#        95098
#        109242
#        132405
#        147616
#
# Disc length: 2123 seconds
#
# Revision: 0
# Processed by: cddbd v1.4PL0 Copyright (c) Steve Scherf et al.
# Submitted via: ExactAudioCopy v0.90b4
#
DISCID=7f08490a
DTITLE=Sue Foley - Mountain Stage
DYEAR=1900
DGENRE=
TTITLE0=Intro
TTITLE1=Two Trains
TTITLE2=Hooked On Love
TTITLE3=Long Distance Lover
TTITLE4=Let Me Drive
TTITLE5=Outro
TTITLE6=Mark Hummel - Go On Fool
TTITLE7=Mark Hummel - Don't Need Another Heartache
TTITLE8=Mark Hummel - Look What You Done
TTITLE9=Guitar Rumba
EXTD=
EXTT0=
EXTT1=
EXTT2=
EXTT3=
EXTT4=
EXTT5=
EXTT6=
EXTT7=
EXTT8=
EXTT9=
PLAYORDER=
